<svg id="Capa_1" enable-background="new 0 0 512.001 512.001" height="512" viewBox="0 0 512.001 512.001" width="512" xmlns="http://www.w3.org/2000/svg"><g><g><circle cx="280.775" cy="148.647" r="8.258"/><circle cx="313.807" cy="148.647" r="8.258"/><circle cx="272.517" cy="82.582" r="8.258"/><circle cx="322.065" cy="82.582" r="8.258"/><circle cx="123.872" cy="214.711" r="8.258"/><circle cx="74.323" cy="214.711" r="8.258"/><path d="m214.958 111.105c-.099 1.511-.248 3.022-.248 4.509 0 40.977 37.046 74.323 82.581 74.323s82.581-33.346 82.581-74.323c0-1.486-.149-3.006-.248-4.509 24.089-6.094 41.538-27.904 41.538-53.298 0-2.502-1.14-4.872-3.089-6.441-1.949-1.561-4.517-2.172-6.962-1.619l-34.089 7.573c1.61-4.814 2.519-9.893 2.618-15.054.256-13.378-4.889-26.029-14.493-35.634l-4.212-4.212c-1.932-1.941-4.699-2.791-7.399-2.271-2.692.52-4.955 2.337-6.028 4.856l-13.295 31.035c-11.115-6.97-23.618-11.264-36.922-11.264s-25.806 4.294-36.922 11.264l-13.295-31.034c-1.074-2.519-3.337-4.336-6.029-4.856s-5.459.33-7.399 2.271l-4.212 4.212c-9.604 9.604-14.749 22.264-14.493 35.634.099 5.161 1.007 10.24 2.618 15.054l-34.089-7.573c-2.444-.562-5.004.05-6.962 1.619-1.949 1.569-3.089 3.939-3.089 6.441.001 25.402 17.45 47.203 41.539 53.297zm32.248 42.1c10.215-17.92 29.275-29.333 50.085-29.333s39.87 11.404 50.085 29.333c-12.123 12.354-30.059 20.216-50.085 20.216s-37.962-7.862-50.085-20.216zm129.685-58.434c-1.726-6.392-4.113-12.75-7.201-18.894l33.462-7.432c-3.626 12.56-13.519 22.61-26.261 26.326zm-19.258-71.457c4.6 6.747 5.591 13.626 5.5 18.638-.116 5.797-1.858 11.355-4.699 16.268-3.278-4.203-6.854-8.134-10.719-11.751zm5.723 92.3c0 8.258-2.023 16.103-5.607 23.213-13.774-19.398-36.187-31.471-60.457-31.471s-46.683 12.073-60.457 31.471c-3.584-7.11-5.607-14.955-5.607-23.213 0-33.453 30.481-74.323 66.065-74.323s66.063 40.87 66.063 74.323zm-126.407-92.3 9.918 23.156c-3.865 3.609-7.441 7.548-10.719 11.751-2.833-4.914-4.583-10.471-4.699-16.268-.09-5.013.901-11.892 5.5-18.639zm-12.056 52.554c-3.097 6.144-5.475 12.503-7.201 18.903-12.742-3.716-22.635-13.766-26.261-26.335z"/><circle cx="454.194" cy="388.13" r="8.258"/><circle cx="322.065" cy="388.13" r="8.258"/><circle cx="189.936" cy="388.13" r="8.258"/><circle cx="57.807" cy="388.13" r="8.258"/><path d="m495.485 388.13c0-22.767-18.523-41.29-41.29-41.29s-41.29 18.523-41.29 41.29v24.774h-49.548v-24.774c0-22.767-18.523-41.29-41.29-41.29s-41.29 18.523-41.29 41.29v24.774h-49.548v-24.774c0-22.767-18.523-41.29-41.29-41.29s-41.29 18.523-41.29 41.29v24.774h-49.552v-24.774c0-22.767-18.523-41.29-41.29-41.29s-41.29 18.523-41.29 41.29v107.355h-16.516v16.516h512v-16.516h-16.516zm-41.291-24.774c13.659 0 24.774 11.115 24.774 24.774v107.355h-49.548v-107.355c0-13.658 11.115-24.774 24.774-24.774zm-41.29 132.129h-49.548v-33.032h49.548zm0-66.064v16.516h-49.548v-16.516zm-90.839-66.065c13.659 0 24.774 11.115 24.774 24.774v107.355h-49.548v-107.355c0-13.658 11.115-24.774 24.774-24.774zm-41.29 132.129h-49.548v-33.032h49.548zm0-66.064v16.516h-49.548v-16.516zm-90.839-66.065c13.659 0 24.774 11.115 24.774 24.774v107.355h-49.548v-107.355c0-13.658 11.115-24.774 24.774-24.774zm-41.29 132.129h-49.549v-33.032h49.548v33.032zm0-66.064v16.516h-49.549v-16.516zm-115.613-41.291c0-13.659 11.115-24.774 24.774-24.774s24.774 11.115 24.774 24.774v107.355h-49.548z"/><path d="m492.52 188.071 5.384-5.384c9.662-9.654 9.662-25.377 0-35.031l-3.526-3.526c-8.316-8.324-21.454-9.621-31.257-3.097l-4.352 2.899c-2.766 1.85-6.367 1.866-9.158 0l-4.344-2.89c-9.802-6.532-22.949-5.227-31.257 3.097l-3.526 3.526c-9.662 9.654-9.662 25.377 0 35.031l5.384 5.384c-7.986 7.102-14.006 16.351-17.102 26.863-15.583 1.057-30.101 7.573-41.249 18.721-1.8 1.8-2.667 4.319-2.362 6.846.306 2.527 1.767 4.765 3.947 6.07l37.285 22.355v60.292l33.049-22.016 24.799 16.516 24.749-16.516 33.016 22.041v-98.023c.001-17.17-7.564-32.563-19.48-43.158zm-70.359-17.07c-1.553-1.561-2.411-3.634-2.411-5.838s.859-4.278 2.411-5.838l3.526-3.526c2.775-2.766 7.151-3.204 10.422-1.024l4.335 2.89c8.365 5.582 19.15 5.566 27.483 0l4.352-2.899c3.27-2.164 7.655-1.742 10.422 1.032l3.526 3.526c1.553 1.561 2.411 3.634 2.411 5.838s-.859 4.278-2.411 5.838l-7.812 7.812c-7.374-3.427-15.566-5.393-24.221-5.393s-16.846 1.965-24.221 5.393zm-44.403 67.493c5.657-3.543 11.982-5.847 18.63-6.788v17.961zm117.727 59.871-16.491-11.008-24.758 16.516-24.791-16.516-16.541 11.025v-67.155c0-22.767 18.523-41.29 41.29-41.29s41.29 18.523 41.29 41.29v67.138z"/><circle cx="437.678" cy="222.969" r="8.258"/><circle cx="74.323" cy="289.034" r="8.258"/><circle cx="123.872" cy="289.034" r="8.258"/><path d="m18.565 214.984c-1.305 5.236-2.048 10.661-2.048 16.244 0 16.714 6.26 35.237 17.16 51.406-.33 2.098-.644 4.212-.644 6.4 0 22.767 18.523 41.29 41.29 41.29h49.548c22.767 0 41.29-18.523 41.29-41.29 0-2.188-.314-4.302-.644-6.4 10.901-16.169 17.16-34.692 17.16-51.406 0-6.375-.991-12.536-2.676-18.44 17.185-17.879 21.529-44.899 10.067-67.832l-2.287-4.567h-5.103c-19.58 0-36.137 11.974-47.616 23.602-10.636-4.492-22.454-7.085-34.965-7.085-13.254 0-25.749 2.89-36.856 7.911-11.669-12.049-28.482-24.427-48.425-24.427h-5.103l-2.279 4.567c-11.983 23.955-6.656 52.387 12.131 70.027zm105.307 98.824h-49.549c-13.659 0-24.774-11.115-24.774-24.774s11.115-24.774 24.774-24.774c7.135 0 13.725 3.047 18.564 8.572l6.21 7.11 6.21-7.11c4.839-5.525 11.429-8.572 18.564-8.572 13.659 0 24.774 11.115 24.774 24.774.001 13.659-11.114 24.774-24.773 24.774zm52.554-156.474c4.674 13.114 2.758 27.359-4.732 38.483-5.566-9.208-13.295-17.185-22.478-23.527 7.506-6.913 16.904-13.271 27.21-14.956zm-11.264 73.893c0 10.413-3.122 21.851-8.712 32.735-7.556-9.794-19.283-16.219-32.578-16.219-8.968 0-17.656 2.998-24.774 8.407-7.118-5.409-15.806-8.407-24.774-8.407-13.295 0-25.022 6.425-32.578 16.219-5.591-10.876-8.712-22.322-8.712-32.735 0-31.876 29.638-57.806 66.065-57.806s66.063 25.93 66.063 57.806zm-146.085-73.893c10.785 1.759 20.579 8.63 28.333 16.012-9.208 6.681-16.756 15.104-22.099 24.708-8.695-11.346-11.239-26.681-6.234-40.72z"/></g></g></svg>