<?xml version='1.0' encoding='iso-8859-1'?>
<svg version="1.1" xmlns="http://www.w3.org/2000/svg" viewBox="0 0 463 463" xmlns:xlink="http://www.w3.org/1999/xlink" enable-background="new 0 0 463 463">
  <g>
    <path d="m425.562,176.272c-8.241-10.802-15.089-19.803-17.561-29.287 12.727-0.268 22.999-10.697 22.999-23.487 0-12.958-10.542-23.5-23.5-23.5h-40.525c0.005-0.167 0.025-0.331 0.025-0.5v-16c0-8.547-6.953-15.5-15.5-15.5h-16.525c0.005-0.167 0.025-0.331 0.025-0.5v-16c0-8.547-6.953-15.5-15.5-15.5h-16.525c0.005-0.167 0.025-0.331 0.025-0.5v-16c0-8.547-6.953-15.5-15.5-15.5h-48c-2.929,0-5.661,0.832-8,2.249-2.339-1.418-5.071-2.249-8-2.249h-48c-8.547,0-15.5,6.953-15.5,15.5v16c0,0.169 0.02,0.333 0.025,0.5h-16.525c-8.547,0-15.5,6.953-15.5,15.5v16c0,0.169 0.02,0.333 0.025,0.5h-16.525c-8.547,0-15.5,6.953-15.5,15.5v16c0,0.169 0.02,0.333 0.025,0.5h-40.525c-12.958,0-23.5,10.542-23.5,23.5 0,12.79 10.272,23.219 22.999,23.487-2.472,9.484-9.32,18.484-17.561,29.287-16.68,21.864-37.438,49.075-37.438,99.226 0,47.292 24.365,91.612 68.608,124.794 4.369,3.277 8.887,6.398 13.531,9.377l-7.661,15.322c-5.789,11.589-1.074,25.733 10.512,31.528 3.295,1.648 6.828,2.483 10.499,2.483 8.963,0 17.022-4.978 21.032-12.994l7.478-14.955c32.768,13.029 69.443,19.945 107.502,19.945 38.085,0 74.784-6.925 107.569-19.971l7.492,14.983c4.009,8.014 12.068,12.992 21.031,12.992 3.671,0 7.203-0.835 10.5-2.484 11.584-5.795 16.299-19.938 10.509-31.53l-7.679-15.358c4.623-2.967 9.12-6.076 13.47-9.338 44.242-33.182 68.607-77.501 68.607-124.794 0-50.151-20.758-77.362-37.438-99.226zm-73.562-92.774v16c0,0.276-0.224,0.5-0.5,0.5h-48c-0.276,0-0.5-0.224-0.5-0.5v-16c0-0.276 0.224-0.5 0.5-0.5h48c0.276,0 0.5,0.224 0.5,0.5zm-177,16v-16c0-0.276 0.224-0.5 0.5-0.5h48c0.276,0 0.5,0.224 0.5,0.5v16c0,0.276-0.224,0.5-0.5,0.5h-48c-0.276,0-0.5-0.224-0.5-0.5zm32-48c0-0.276 0.224-0.5 0.5-0.5h48c0.276,0 0.5,0.224 0.5,0.5v16c0,0.276-0.224,0.5-0.5,0.5h-48c-0.276,0-0.5-0.224-0.5-0.5v-16zm32,48v-16c0-0.276 0.224-0.5 0.5-0.5h48c0.276,0 0.5,0.224 0.5,0.5v16c0,0.276-0.224,0.5-0.5,0.5h-48c-0.276,0-0.5-0.224-0.5-0.5zm81-48v16c0,0.276-0.224,0.5-0.5,0.5h-48c-0.276,0-0.5-0.224-0.5-0.5v-16c0-0.276 0.224-0.5 0.5-0.5h48c0.276,7.10543e-15 0.5,0.224 0.5,0.5zm-80.5-32.5h48c0.276,3.55271e-15 0.5,0.224 0.5,0.5v16c0,0.276-0.224,0.5-0.5,0.5h-48c-0.276,0-0.5-0.224-0.5-0.5v-16c0-0.276 0.224-0.5 0.5-0.5zm-64.5,16.5v-16c0-0.276 0.224-0.5 0.5-0.5h48c0.276,0 0.5,0.224 0.5,0.5v16c0,0.276-0.224,0.5-0.5,0.5h-48c-0.276,0-0.5-0.224-0.5-0.5zm-32,32v-16c0-0.276 0.224-0.5 0.5-0.5h48c0.276,0 0.5,0.224 0.5,0.5v16c0,0.276-0.224,0.5-0.5,0.5h-48c-0.276,0-0.5-0.224-0.5-0.5zm-32,32v-16c0-0.276 0.224-0.5 0.5-0.5h48c0.276,0 0.5,0.224 0.5,0.5v16c0,0.276-0.224,0.5-0.5,0.5h-48c-0.276,0-0.5-0.224-0.5-0.5zm-64,24c0-4.687 3.813-8.5 8.5-8.5h352c4.687,0 8.5,3.813 8.5,8.5s-3.813,8.5-8.5,8.5h-352c-4.687,0-8.5-3.813-8.5-8.5zm56.105,315.8c-1.452,2.901-4.371,4.704-7.617,4.704-1.321,0-2.597-0.303-3.789-0.899-4.192-2.097-5.897-7.215-3.804-11.407l7.158-14.316c4.928,2.732 9.986,5.301 15.154,7.715l-7.102,14.203zm272.079-7.605c2.095,4.194 0.39,9.313-3.801,11.409-1.194,0.597-2.469,0.899-3.791,0.899-3.247,0-6.165-1.802-7.616-4.702l-7.118-14.236c5.167-2.416 10.224-4.986 15.151-7.719l7.175,14.349zm-143.684,4.305c-119.378,0-216.5-72-216.5-160.5 0-45.083 18.257-69.014 34.364-90.128 9.489-12.439 18.524-24.291 20.979-38.372h322.313c2.455,14.081 11.49,25.933 20.979,38.372 16.108,21.114 34.365,45.045 34.365,90.128 0,88.5-97.122,160.5-216.5,160.5z"/>
    <path d="m318.995,243.062c0.151-8.316-2.959-16.089-8.759-21.889-4.396-4.396-10.028-7.257-16.11-8.3-1.042-6.083-3.904-11.715-8.299-16.11-5.8-5.8-13.588-8.934-21.889-8.759-8.212,0.149-15.978,3.474-21.866,9.362-4.417,4.416-7.879,10.279-10.571,16.387-2.691-6.107-6.154-11.97-10.57-16.387-12.229-12.229-31.858-12.499-43.755-0.603-4.396,4.396-7.257,10.027-8.3,16.11-6.082,1.043-11.715,3.905-16.11,8.3-5.8,5.8-8.911,13.573-8.759,21.889 0.149,8.212 3.474,15.978 9.362,21.866 4.416,4.417 10.279,7.879 16.387,10.571-6.107,2.691-11.97,6.154-16.387,10.571-5.888,5.888-9.213,13.653-9.362,21.866-0.151,8.316 2.959,16.089 8.759,21.889 4.395,4.395 10.027,7.256 16.11,8.299 1.043,6.083 3.904,11.715 8.3,16.11 11.896,11.897 31.526,11.626 43.755-0.603 2.11-2.11 3.997-4.557 5.691-7.196 2.449,15.357 6.888,32.129 14.422,44.879 1.4,2.369 3.898,3.686 6.464,3.686 1.297,0 2.611-0.336 3.809-1.044 3.566-2.107 4.749-6.707 2.642-10.272-4.783-8.094-8.142-18.364-10.448-28.707 6.014,5.327 13.535,8.007 20.994,8.007 7.777,0 15.482-2.909 21.323-8.749 4.396-4.395 7.257-10.028 8.299-16.11 6.083-1.042 11.715-3.904 16.11-8.299 11.897-11.897 11.627-31.526-0.603-43.755-4.417-4.417-10.279-7.879-16.386-10.57 6.107-2.692 11.97-6.154 16.386-10.571 5.887-5.89 9.212-13.656 9.361-21.868zm-19.969,11.259c-5.713,5.713-18.015,10.879-32.907,13.819-3.514,0.694-6.047,3.776-6.047,7.358s2.533,6.664 6.047,7.358c14.893,2.94 27.194,8.106 32.907,13.819 6.381,6.381 6.652,16.494 0.603,22.542-3.1,3.1-7.484,4.669-12.031,4.293-2.196-0.182-4.357,0.615-5.914,2.172-1.557,1.557-2.351,3.719-2.172,5.914 0.371,4.546-1.194,8.931-4.293,12.031-6.048,6.048-16.161,5.778-22.542-0.603-5.713-5.713-10.879-18.015-13.819-32.907-0.694-3.514-3.776-6.047-7.358-6.047s-6.664,2.533-7.358,6.047c-2.94,14.892-8.106,27.194-13.819,32.907-6.381,6.38-16.494,6.651-22.542,0.603-3.1-3.1-4.665-7.485-4.294-12.031 0.179-2.194-0.615-4.356-2.171-5.913-1.413-1.412-3.322-2.197-5.303-2.197-0.203,0-0.406,0.008-0.61,0.025-4.546,0.367-8.931-1.194-12.031-4.294-6.049-6.049-5.778-16.161 0.603-22.542 5.713-5.713 18.015-10.879 32.907-13.819 3.514-0.694 6.047-3.776 6.047-7.358s-2.533-6.664-6.047-7.358c-14.893-2.94-27.194-8.106-32.907-13.819-6.381-6.381-6.651-16.493-0.603-22.542 3.1-3.1 7.481-4.663 12.031-4.294 2.19,0.175 4.356-0.615 5.913-2.172 1.557-1.557 2.351-3.719 2.172-5.913-0.371-4.546 1.194-8.931 4.294-12.031 6.049-6.049 16.161-5.778 22.542,0.603 5.713,5.713 10.879,18.016 13.819,32.908 0.694,3.514 3.776,6.047 7.358,6.047s6.664-2.533 7.358-6.047c2.94-14.893 8.106-27.195 13.819-32.908 6.381-6.381 16.493-6.652 22.542-0.602 3.1,3.099 4.665,7.484 4.294,12.031-0.179,2.194 0.615,4.356 2.172,5.913 1.557,1.556 3.721,2.354 5.913,2.171 4.547-0.369 8.931,1.194 12.031,4.294 6.048,6.049 5.777,16.161-0.604,22.542z"/>
    <path d="m262.443,234.496l-30.943,30.943-30.943-30.943c-2.929-2.929-7.678-2.929-10.606,0-2.929,2.929-2.929,7.678 0,10.606l30.943,30.943-30.943,30.943c-2.929,2.929-2.929,7.678 0,10.606 1.464,1.464 3.384,2.197 5.303,2.197s3.839-0.732 5.303-2.197l30.943-30.943 30.943,30.943c1.464,1.464 3.384,2.197 5.303,2.197s3.839-0.732 5.303-2.197c2.929-2.929 2.929-7.678 0-10.606l-30.943-30.943 30.943-30.943c2.929-2.929 2.929-7.678 0-10.606-2.928-2.929-7.677-2.929-10.606,0z"/>
  </g>
</svg>
