<?xml version="1.0" encoding="iso-8859-1"?>
<!-- Generator: Adobe Illustrator 19.0.0, SVG Export Plug-In . SVG Version: 6.00 Build 0)  -->
<svg version="1.1" id="Layer_1" xmlns="http://www.w3.org/2000/svg" xmlns:xlink="http://www.w3.org/1999/xlink" x="0px" y="0px"
	 viewBox="0 0 512 512" style="enable-background:new 0 0 512 512;" xml:space="preserve">
<g>
	<g>
		<g>
			<path d="M89.301,256l14.532,21.803c1.579,2.372,4.25,3.797,7.1,3.797c2.85,0,5.521-1.425,7.1-3.797L132.565,256H153.6
				c4.719,0,8.533-3.823,8.533-8.533s-3.814-8.533-8.533-8.533h-21.035l-14.532-21.803c-3.166-4.745-11.034-4.745-14.199,0
				l-14.532,21.803H68.267c-4.719,0-8.533,3.823-8.533,8.533S63.548,256,68.267,256H89.301z M110.933,237.252l6.81,10.214
				l-6.81,10.214l-6.81-10.214L110.933,237.252z"/>
			<path d="M247.467,290.133h102.4c4.719,0,8.533-3.823,8.533-8.533v-34.133c0-4.71-3.814-8.533-8.533-8.533h-51.2
				c-4.719,0-8.533,3.823-8.533,8.533s3.814,8.533,8.533,8.533h42.667v17.067H256V256h8.533c4.719,0,8.533-3.823,8.533-8.533v-25.6
				h76.8c4.719,0,8.533-3.823,8.533-8.533s-3.814-8.533-8.533-8.533h-68.975l-10.334-17.903l59.119-34.133l8.533,14.78L320,178.048
				c-4.087,2.364-5.487,7.578-3.123,11.657c2.355,4.087,7.578,5.478,11.656,3.132l25.6-14.78c1.954-1.135,3.388-2.995,3.977-5.18
				c0.58-2.193,0.282-4.523-0.853-6.477l-17.067-29.559c-2.355-4.087-7.586-5.487-11.657-3.123l-73.899,42.667
				c-1.963,1.135-3.396,2.995-3.977,5.18c-0.58,2.193-0.282,4.523,0.853,6.477l10.018,17.365c-3.217,1.22-5.53,4.275-5.53,7.927
				v25.6h-8.533c-4.719,0-8.533,3.823-8.533,8.533V281.6C238.933,286.31,242.748,290.133,247.467,290.133z"/>
			<path d="M290.389,392.533c0-4.71-3.823-8.533-8.533-8.533h-0.094c-4.702,0-8.482,3.823-8.482,8.533s3.857,8.533,8.576,8.533
				C286.566,401.067,290.389,397.244,290.389,392.533z"/>
			<path d="M174.029,461.491c-44.877-19.234-40.713-79.966-38.417-97.954c39.808-10.88,69.188-47.266,69.188-90.47v-85.333
				c9.412,0,17.067-7.654,17.067-17.067V153.6c0-9.412-7.654-17.067-17.067-17.067H17.067C7.654,136.533,0,144.188,0,153.6v17.067
				c0,9.412,7.654,17.067,17.067,17.067h145.067c4.719,0,8.533-3.823,8.533-8.533c0-4.71-3.814-8.533-8.533-8.533H17.067V153.6
				H204.8v17.067h-8.533c-4.719,0-8.533,3.823-8.533,8.533v93.867c0,37.103-26.453,68.139-61.491,75.255c0,0,0,0-0.009,0.009
				c-4.941,0.998-10.061,1.536-15.3,1.536c-42.351,0-76.8-34.458-76.8-76.8v-59.733c0-4.71-3.814-8.533-8.533-8.533
				s-8.533,3.823-8.533,8.533v59.733c0,51.755,42.112,93.867,93.867,93.867c2.398,0,4.753-0.188,7.1-0.358
				c-2.125,21.06-2.799,66.022,25.02,94.225H78.72c15.394-15.676,24.183-38.63,25.702-67.823c0.247-4.71-3.371-8.721-8.081-8.969
				c-4.668-0.256-8.713,3.371-8.969,8.081c-1.271,24.474-9.173,56.388-39.535,69.402c-3.721,1.596-5.811,5.589-5.001,9.557
				c0.819,3.968,4.309,6.818,8.363,6.818h119.467c4.053,0,7.543-2.85,8.354-6.818C179.84,467.081,177.749,463.087,174.029,461.491z"
				/>
			<path d="M494.933,426.667h-230.4c-4.719,0-8.533,3.823-8.533,8.533s3.814,8.533,8.533,8.533h230.4V460.8H221.867v-17.067h8.533
				c4.719,0,8.533-3.823,8.533-8.533V384c0-4.71-3.814-8.533-8.533-8.533s-8.533,3.823-8.533,8.533v42.667
				c-9.412,0-17.067,7.654-17.067,17.067V460.8c0,9.412,7.654,17.067,17.067,17.067h273.067c9.404,0,17.067-7.654,17.067-17.067
				v-17.067C512,434.321,504.337,426.667,494.933,426.667z"/>
			<path d="M503.467,102.4H435.2c-4.719,0-8.533,3.823-8.533,8.533c0,4.71,3.814,8.533,8.533,8.533h59.733v17.067H486.4
				c-4.719,0-8.533,3.823-8.533,8.533v68.267c0,4.71,3.814,8.533,8.533,8.533v17.067c-4.719,0-8.533,3.823-8.533,8.533v25.6h-85.333
				V256h59.733c4.719,0,8.533-3.823,8.533-8.533s-3.814-8.533-8.533-8.533h-51.2v-17.067h51.2c4.719,0,8.533-3.823,8.533-8.533
				s-3.814-8.533-8.533-8.533h-59.733v-17.067h59.733c4.719,0,8.533-3.823,8.533-8.533c0-4.71-3.814-8.533-8.533-8.533h-59.733
				V153.6h59.733c4.719,0,8.533-3.823,8.533-8.533s-3.814-8.533-8.533-8.533H409.6v-25.6c0-4.71-3.814-8.533-8.533-8.533h-25.6
				V85.333h68.267c4.719,0,8.533-3.823,8.533-8.533s-3.814-8.533-8.533-8.533H384V51.2h85.333v25.6c0,4.71,3.814,8.533,8.533,8.533
				S486.4,81.51,486.4,76.8V42.667c0-4.71-3.814-8.533-8.533-8.533h-102.4c-4.719,0-8.533,3.823-8.533,8.533v25.6
				c-4.719,0-8.533,3.823-8.533,8.533v34.133c0,4.71,3.814,8.533,8.533,8.533h25.6v17.067H384c-4.719,0-8.533,3.823-8.533,8.533
				v68.267c0,4.71,3.814,8.533,8.533,8.533v17.067c-4.719,0-8.533,3.823-8.533,8.533V281.6c0,4.71,3.814,8.533,8.533,8.533h102.4
				c4.719,0,8.533-3.823,8.533-8.533V256c4.719,0,8.533-3.823,8.533-8.533v-34.133c0-4.71-3.814-8.533-8.533-8.533v-51.2h8.533
				c4.719,0,8.533-3.823,8.533-8.533v-34.133C512,106.223,508.186,102.4,503.467,102.4z"/>
			<path d="M341.589,392.533c0-4.71-3.823-8.533-8.533-8.533h-0.094c-4.702,0-8.482,3.823-8.482,8.533s3.857,8.533,8.576,8.533
				C337.766,401.067,341.589,397.244,341.589,392.533z"/>
			<path d="M494.933,307.2H221.867c-9.412,0-17.067,7.654-17.067,17.067v17.067c0,9.412,7.654,17.067,17.067,17.067h230.4
				c4.719,0,8.533-3.823,8.533-8.533c0-4.71-3.814-8.533-8.533-8.533h-230.4v-17.067h273.067v17.067H486.4
				c-4.719,0-8.533,3.823-8.533,8.533v61.867c0,4.71,3.814,8.533,8.533,8.533s8.533-3.823,8.533-8.533V358.4
				c9.404,0,17.067-7.654,17.067-17.067v-17.067C512,314.854,504.337,307.2,494.933,307.2z"/>
			<path d="M443.989,392.533c0-4.71-3.823-8.533-8.533-8.533h-0.094c-4.702,0-8.482,3.823-8.482,8.533s3.857,8.533,8.576,8.533
				C440.166,401.067,443.989,397.244,443.989,392.533z"/>
			<path d="M392.789,392.533c0-4.71-3.823-8.533-8.533-8.533h-0.094c-4.702,0-8.482,3.823-8.482,8.533s3.857,8.533,8.576,8.533
				C388.966,401.067,392.789,397.244,392.789,392.533z"/>
		</g>
	</g>
</g>
<g>
</g>
<g>
</g>
<g>
</g>
<g>
</g>
<g>
</g>
<g>
</g>
<g>
</g>
<g>
</g>
<g>
</g>
<g>
</g>
<g>
</g>
<g>
</g>
<g>
</g>
<g>
</g>
<g>
</g>
</svg>
